# xmcd CD database file
#
# Track frame offsets:
#	150
#	12650
#	25860
#	41500
#	53950
#	68835
#	85632
#	99642
#	121252
#	134767
#	148025
#	161722
#	173160
#	189762
#	204790
#	221402
#	240675
#	257993
#	271066
#	289056
#	309139
#	327606
#
# Disc length: 4688 seconds
#
# Revision: 0
# Processed by: cddbd v1.5.1PL0 Copyright (c) Steve Scherf et al.
# Submitted via: CDex 1.51
#
DISCID=3d124e16
DTITLE=Peter Green with Nigel Watson - The Robert Johnson Songbook (1998)
DYEAR=1900
DGENRE=Blues
TTITLE0=01-When You Got A Good Friend
TTITLE1=02-32-20 Blues
TTITLE2=03-Phonograph Blues
TTITLE3=04-Last Fair Deal Gone Down
TTITLE4=05-Stop Breakin' Down Blues
TTITLE5=06-Terraplane Blues
TTITLE6=07-Walkin' Blues
TTITLE7=08-Love In Vain Blues
TTITLE8=09-Ramblin' On My Mind
TTITLE9=10-Stones In My Passway
TTITLE10=11-Me And The Devil Blues
TTITLE11=12-Honeymoon Blues
TTITLE12=13-Kind Hearted Woman Blues
TTITLE13=14-I Believe I'll Dust My Broom
TTITLE14=15-If I Had Possession Over Judgment Day
TTITLE15=16-Sweet Home Chicago (voc Paul Rodgers)
TTITLE16=Jesse Winchester-Freewheeler
TTITLE17=Jesse Winchester-Wander My Way Home
TTITLE18=David Ackles-Down river
TTITLE19=Nick Drake-Time has told me
TTITLE20=Dan Penn and Spooner Oldham-A Woman Left Lonely
TTITLE21=Badly Drawn Boy-The Shining
EXTD=
EXTT0=
EXTT1=
EXTT2=
EXTT3=
EXTT4=
EXTT5=
EXTT6=
EXTT7=
EXTT8=
EXTT9=
EXTT10=
EXTT11=
EXTT12=
EXTT13=
EXTT14=
EXTT15=
EXTT16=
EXTT17=
EXTT18=
EXTT19=
EXTT20=
EXTT21=
PLAYORDER=
